<svg width="23" height="40" viewBox="0 0 23 40" fill="none" xmlns="http://www.w3.org/2000/svg">
<path d="M22.0882 0.774563C21.8433 0.529037 21.5524 0.33424 21.2321 0.201327C20.9118 0.0684152 20.5684 0 20.2216 0C19.8748 0 19.5315 0.0684152 19.2112 0.201327C18.8908 0.33424 18.5999 0.529037 18.355 0.774563L0.616816 18.5127C0.421288 18.7079 0.266163 18.9396 0.160321 19.1948C0.0544795 19.45 0 19.7235 0 19.9997C0 20.276 0.0544795 20.5495 0.160321 20.8046C0.266163 21.0598 0.421288 21.2916 0.616816 21.4867L18.355 39.2249C19.3885 40.2584 21.0547 40.2584 22.0882 39.2249C23.1217 38.1914 23.1217 36.5251 22.0882 35.4916L6.60688 20.0103L22.1093 4.50781C23.1217 3.47431 23.1217 1.80806 22.0882 0.774563Z" fill="white"/>
</svg>
