<svg width="383" height="384" viewBox="0 0 383 384" fill="none" xmlns="http://www.w3.org/2000/svg">
<mask id="mask0" mask-type="alpha" maskUnits="userSpaceOnUse" x="0" y="0" width="383" height="384">
<circle cx="191.372" cy="191.653" r="191.372" fill="#C4C4C4"/>
</mask>
<g mask="url(#mask0)">
<path d="M200.75 178.956H199.242V177.448H200.75V178.956Z" fill="#2A232B"/>
<path d="M343.943 328.729C340.63 321.569 331.58 310.959 321.525 308.028C309.096 304.403 281.038 300.02 270.635 297.584C262.295 295.629 245.498 280.545 239.612 275.483C238.556 274.577 237.691 272.708 237.67 271.319C237.461 254.929 243.999 211.39 243.999 211.39H199.995H155.994C155.994 211.39 162.532 254.928 162.319 271.319C162.303 272.708 161.434 274.577 160.381 275.483C154.494 280.545 137.697 295.629 129.357 297.584C118.952 300.02 90.8951 304.552 78.4671 308.177C68.4092 311.107 59.362 321.568 56.0491 328.728C50.4551 340.809 49.1335 362.672 49.1335 381.529H199.995H350.857C350.857 362.673 349.534 340.81 343.943 328.729Z" fill="#EBAA82"/>
<path d="M289.24 305.014C325.962 310.357 341.417 318.151 346.256 381.532H350.858C350.858 362.675 349.535 340.812 343.944 328.731C340.631 321.571 331.58 310.961 321.526 308.029C309.096 304.404 281.039 300.022 270.635 297.585C262.296 295.63 243.115 279.378 237.984 272.919C243.053 280.016 257.281 296.461 269.747 300.768C275.71 302.829 280.677 303.767 289.24 305.014ZM130.246 300.768C142.712 296.463 156.938 280.016 162.009 272.919C156.879 279.376 137.699 295.63 129.358 297.585C118.954 300.022 90.8969 304.553 78.4673 308.179C68.4124 311.108 59.3622 321.569 56.0493 328.729C50.4583 340.81 49.1353 362.673 49.1353 381.531H53.7365C58.546 318.555 74.0652 310.35 110.753 305.012C119.315 303.767 124.283 302.829 130.246 300.768Z" fill="#FAC5A3"/>
<path d="M193.428 325.476C193.428 325.476 185.773 323.048 182.742 321.887C166.978 315.839 115.767 311.919 115.767 311.919C115.767 311.919 169.706 314.06 181.609 316.112C180.918 308.92 177.058 285.933 177.058 285.933C177.058 285.933 184.825 311.301 186.726 317.7C187.743 321.122 193.428 325.476 193.428 325.476ZM209.719 323.451C209.585 323.561 209.431 323.705 209.264 323.856C209.434 323.727 209.588 323.593 209.719 323.451ZM193.428 325.476C193.428 325.476 197.792 329.99 199.986 330.047C202.867 330.124 207.269 325.673 209.265 323.856C207.357 325.299 202.991 325.954 201.254 326.022C199.248 326.099 193.428 325.476 193.428 325.476ZM225.136 314.132C222.805 314.507 218.519 315.323 218.519 315.323L221.969 292.859C220.995 297.492 215.22 317.316 209.719 323.451C212.601 321.013 219.009 319.844 222.277 319.372C237.719 317.133 237.713 317.135 284.224 311.919C284.224 311.919 240.367 311.685 225.136 314.132Z" fill="#DC9164"/>
<path d="M343.943 328.729C340.63 321.569 331.58 310.959 321.525 308.028C309.096 304.403 281.038 300.02 270.635 297.584C262.295 295.629 245.498 280.545 239.612 275.483C238.556 274.577 237.691 272.708 237.67 271.319C237.461 254.929 243.999 211.39 243.999 211.39H199.995H155.994C155.994 211.39 162.532 254.928 162.319 271.319C162.303 272.708 161.434 274.577 160.381 275.483C154.494 280.545 137.697 295.629 129.357 297.584C118.952 300.02 90.8951 304.552 78.4671 308.177C68.4092 311.107 59.362 321.568 56.0491 328.728C50.4551 340.809 49.1335 362.672 49.1335 381.529H199.995H350.857C350.857 362.673 349.534 340.81 343.943 328.729Z" stroke="#BD6630" stroke-width="4.5"/>
<path d="M199.998 285.112C221.32 285.112 228.662 277.848 236.536 271.173C236.433 261.003 238.789 241.097 240.662 227.003C217.04 223.69 182.948 223.692 159.326 227.003C161.198 241.097 163.553 260.994 163.449 271.164C171.33 277.842 178.668 285.112 199.998 285.112Z" fill="url(#paint0_linear)"/>
<path d="M243.53 386.358H155.824V301.599C189.391 308.688 211.462 308.142 243.532 301.599V386.358H243.53Z" fill="#F3F1F3"/>
<path d="M211.219 385.952C207.033 385.952 195.036 386.266 186.309 385.605L186.294 385.347C185.06 357.199 187.997 339.004 193.139 326.076L193.211 325.891L193.071 325.75C191.705 324.387 189.412 322.831 186.985 321.187C184.555 319.538 182.044 317.836 180.444 316.29C181.386 315.186 182.548 314.096 183.986 312.969C184.355 312.781 185.739 311.698 192.998 305.47C193.321 305.193 193.519 305.024 193.544 305.002C194.779 304.734 196.77 304.56 199.184 304.56C202.477 304.56 206.321 304.894 209.008 305.41C211.363 307.609 214.214 313.449 215.281 316.227C213.808 319.683 212.07 320.947 209.673 322.689C208.505 323.539 207.181 324.501 205.672 325.876L205.547 325.989L205.579 326.156C211.652 356.796 211.654 363.953 211.654 370.875C211.655 373.924 211.655 380.845 212.165 385.938C211.939 385.949 211.618 385.952 211.219 385.952Z" fill="#131111"/>
<path d="M215.609 316.232C214.472 313.223 211.521 307.286 209.152 305.131C204.814 304.281 197.109 303.859 193.357 304.768C193.194 304.901 183.931 312.889 183.838 312.704C182.471 313.772 181.14 314.973 180.036 316.309C183.145 319.441 190.076 323.183 192.859 325.965C187.353 339.814 184.818 358.536 185.995 385.374C186.01 385.54 186.01 385.721 186.025 385.887C196.218 386.671 210.993 386.386 212.502 386.223C210.752 369.165 214.671 370.451 205.879 326.1C210.507 321.884 213.369 321.58 215.609 316.232ZM207.689 344.957C207.657 344.881 207.629 344.806 207.612 344.76C210.629 360.676 209.694 372.869 211.974 385.451C204.829 384.971 193.849 385.372 186.673 385.372C187.229 374.513 188.465 337.573 193.823 325.42C194.08 325.351 194.335 325.293 194.591 325.231L193.034 377.635L197.179 324.734C197.209 324.73 197.239 324.726 197.269 324.721L199.986 373.91L200.615 324.527C200.654 324.528 200.692 324.525 200.731 324.527L207.066 379.373L203.596 324.856C204.07 324.951 204.545 325.068 205.017 325.207C205.063 325.207 205.123 325.222 205.168 325.252C205.325 326.764 206.58 337.928 207.689 344.957ZM206.36 324.124C202.175 322.237 196.761 322.576 192.588 324.486C190.052 321.751 186.433 319.844 181.228 316.353C182.058 315.63 183.129 314.739 184.562 313.623C184.683 313.623 189.812 309.442 189.903 309.353C191.29 308.086 192.528 306.653 193.704 305.401C198.124 305.22 204.612 305.431 208.519 305.612C210.782 308.442 212.941 312.696 214.568 316.082C211.61 320.413 208.683 322.342 206.36 324.124Z" fill="black"/>
<path d="M167.102 348.791C149.701 288.339 157.56 304.164 152.922 280.42C155.982 273.159 158.893 264.67 160.529 262.923L160.649 262.793C164.107 299.011 174.163 283.365 196.53 304.615C183.745 313.145 171.893 335.289 167.102 348.791ZM247.054 280.422C244.869 274.837 240.903 266.653 239.186 264.836C241.335 296.031 216.337 289.805 202.452 304.362C215.746 312.981 228.359 335.53 232.883 348.798C252.677 283.152 242.011 311.974 247.054 280.422Z" fill="#F3F1F4"/>
<path d="M238.919 264.143C238.919 271.893 238.286 277.965 237.016 279.741C233.33 288.504 217.248 294.605 212.289 297.105C208.525 298.956 204.834 301.343 201.985 304.422C207.738 308.157 210.592 309.525 221.492 326.206C227.898 336.931 231.357 344.985 232.899 349.801C253.081 282.922 242.285 312.119 247.366 280.389C244.974 274.225 240.428 265.528 238.919 264.143ZM244.423 293.603C241.471 320.876 239.156 315.456 232.746 345.17C228.649 332.129 216.038 310.603 203.434 304.3C209.373 299.839 211.024 299.576 218.111 296.336C239.829 286.65 240.718 277.651 239.44 265.754C241.261 267.901 244.154 275.049 246.518 280.118C245.222 284.864 244.634 291.641 244.423 293.603ZM168.615 286.665C161.965 281.16 163.848 274.352 160.787 262.203C159.426 263.712 156.04 272.208 152.61 280.389C153.45 284.607 153.637 291.537 153.756 293.726C154.6 312.134 156.397 312.983 167.078 349.786C171.65 336.352 184.514 313.021 197.612 304.514C187.156 294.97 173.995 291.347 168.615 286.665ZM176.852 325.149C173.501 330.679 170.037 336.433 167.242 345.183C160.541 314.605 158.192 319.591 155.58 293.649C155.098 289.167 154.65 284.556 153.468 280.131C155.939 274.719 159.474 264.621 160.606 263.544C162.666 274.222 160.705 283.853 169.158 289.183C173.112 292.194 185.91 297.209 195.589 304.812C189.719 308.297 186.56 310.351 176.852 325.149Z" fill="#CFC8D7"/>
<path d="M230.649 343.883L228.825 339.879C228.825 339.879 242.626 297.374 245.032 285.23C246.408 297.833 230.649 343.883 230.649 343.883ZM168.132 342.219L170.298 337.303C170.298 337.303 157.365 297.374 154.959 285.23C153.583 297.833 168.132 342.219 168.132 342.219Z" fill="#E1E0E1"/>
<path d="M237.39 322.433C248.048 291.003 241.548 288.413 246.902 277.976C247.104 277.582 249.008 279.554 249.214 280.45C251.185 288.986 329.698 306.606 332.179 308.507C334.376 310.103 340.703 313.24 340.703 313.24C348.151 326.923 352.413 329.379 354.507 366.017C354.703 370.668 354.415 383.821 354.415 387.351L225.339 386.331C225.648 374.577 227.149 353.428 237.39 322.433ZM162.602 322.433C151.943 291.003 158.444 288.413 153.09 277.976C152.888 277.582 150.984 279.554 150.777 280.45C148.807 288.986 70.2936 306.606 67.812 308.507C65.6154 310.103 59.2883 313.24 59.2883 313.24C51.8402 326.923 47.5784 329.379 45.4844 366.017C45.2883 370.668 45.5764 383.821 45.5764 387.351L174.652 386.331C174.343 374.577 172.842 353.428 162.602 322.433Z" fill="#880082"/>
<path d="M245.717 313.976C238.85 338.698 229.468 360.919 225.342 386.33C223.999 386.319 227.591 352.092 237.39 322.434C248.048 291.003 241.547 288.413 246.902 277.976C247.018 277.75 245.968 280.957 246.565 281.645C246.345 293.302 249.214 302.318 245.717 313.976ZM154.274 313.976C161.141 338.698 170.523 360.919 174.649 386.33C175.992 386.319 172.4 352.092 162.601 322.434C151.943 291.003 158.444 288.413 153.09 277.976C152.973 277.75 154.023 280.957 153.426 281.645C153.646 293.302 150.777 302.318 154.274 313.976Z" fill="#790073"/>
<path d="M279.102 307.99C279.102 307.99 275.656 311.853 266.073 318.434C274.089 309.556 277.782 305.989 277.782 305.989L279.102 307.99ZM282.383 325.905L280.078 323.842C273.232 344.633 268.656 354.9 260.725 379.085C272.106 357.472 274.822 349.8 282.383 325.905ZM122.21 305.989C122.21 305.989 125.902 309.556 133.918 318.434C124.336 311.853 120.89 307.99 120.89 307.99L122.21 305.989ZM139.266 379.085C131.336 354.9 126.76 344.633 119.914 323.842L117.609 325.905C125.17 349.8 127.885 357.472 139.266 379.085Z" fill="#690065"/>
<path d="M319.794 358.233C319.794 340.739 324.485 330.549 334.299 315.778C335.216 316.339 335.704 316.597 336.328 317.098C325.893 330.046 323.82 342.127 319.794 358.233ZM262.32 375.383C271.542 350.185 274.479 340.341 280.585 323.505C278.85 322.975 267.503 319.002 265.771 318.457C266.39 319.966 270.468 321.206 277.572 325.561C277.572 325.563 269.895 348.8 262.32 375.383ZM274.722 305.797C274.722 305.797 269.665 312.042 264.669 318.361C269.78 314.333 273.34 309.846 277.78 305.99C271.755 300.909 261.923 293.13 255.572 287.752C260.586 293.141 274.722 305.797 274.722 305.797ZM353.985 387.348L354.416 387.351C354.416 383.821 354.703 370.669 354.508 366.018C352.413 329.38 348.151 326.923 340.705 313.24C340.705 313.24 334.377 310.104 332.181 308.508C330.168 306.967 273.656 293.539 252.993 284.551C277.148 301.102 322.815 307.221 336.33 317.098C342.865 321.876 351.665 362.762 353.985 387.348ZM63.6361 317.051C64.4538 316.473 64.5699 316.499 65.3982 315.951C75.2117 330.722 80.1962 340.739 80.1962 358.232C76.1712 342.127 73.3923 329.544 63.6361 317.051ZM122.419 325.563C129.524 321.207 133.601 319.967 134.22 318.459C132.488 319.002 121.142 322.977 119.407 323.506C125.514 340.343 128.449 350.186 137.672 375.385C130.097 348.8 122.419 325.563 122.419 325.563ZM144.418 287.752C138.067 293.129 128.235 300.909 122.21 305.99C126.65 309.847 130.211 314.333 135.321 318.361C130.323 312.042 125.268 305.797 125.268 305.797C125.268 305.797 139.405 293.141 144.418 287.752ZM63.6632 317.098C77.1775 307.221 122.845 301.1 146.999 284.551C126.337 293.539 69.8244 306.966 67.812 308.508C65.6154 310.104 59.2883 313.24 59.2883 313.24C51.8402 326.923 47.5784 329.38 45.4844 366.018C45.2883 370.669 45.5764 383.821 45.5764 387.351L46.0079 387.348C48.3266 362.762 57.1264 321.876 63.6632 317.098Z" fill="#970F91"/>
<path d="M248.642 278.334C248.569 277.892 247.974 277.378 247.529 277.343C247.083 277.308 246.877 278.034 246.674 278.432C241.32 288.869 247.298 291.004 236.64 322.434C226.399 353.429 225.199 375.028 224.892 386.781L354.418 387.35C354.418 383.82 355.156 370.668 354.959 366.017C352.864 329.378 348.453 326.622 341.005 312.937C341.005 312.937 334.376 309.65 332.179 308.055C324.804 302.41 331.289 308.09 298.944 299.004C272.429 291.257 270.997 289.082 261.381 286.407C259.438 285.85 255.261 285.167 250.896 282.106C250.497 281.827 248.786 279.194 248.642 278.334ZM225.603 385.35C231.228 349.8 234.783 340.498 242.644 314.031C247.958 297.279 245.022 287.769 247.553 280.027C247.686 279.623 248.258 279.601 248.415 280.001C252.087 289.376 262.351 291.551 276.828 305.719C268.058 314.488 265.802 316.852 264.669 318.361C265.972 319.022 273.09 321.724 279.604 324.244C279.234 325.402 259.366 381.602 259.132 382.356C274.218 349.803 276.167 339.797 280.585 323.505C279.359 322.582 268.678 318.66 266.871 318.014C273.319 311.34 275.184 309.873 278.231 305.989C280.678 305.989 254.283 285.897 252.992 284.55C253.689 285.099 257.144 286.648 257.533 286.799C279.682 294.593 262.157 291.067 310.636 304.904C315.271 306.082 321.732 307.268 326.522 307.739C326.851 307.769 334.661 311.853 339.119 313.728C328.273 325.005 321.322 339.575 319.793 358.232C324.65 339.124 327.263 329.131 339.617 314.755C351.112 338.021 349.807 334.661 353.541 386.731C322.446 385.505 274.761 385.224 225.603 385.35ZM149.096 282.107C144.73 285.167 140.554 285.85 138.611 286.408C128.995 289.082 127.564 291.259 101.048 299.005C68.7034 308.092 75.1875 302.412 67.8133 308.057C65.6168 309.653 58.9879 312.939 58.9879 312.939C51.5398 326.622 47.1286 329.378 45.0332 366.018C44.837 370.669 45.5748 383.821 45.5748 387.352L175.1 386.783C174.794 375.029 173.593 353.43 163.353 322.436C152.694 291.005 158.671 288.87 153.319 278.434C153.114 278.035 152.91 277.31 152.463 277.345C152.018 277.379 151.424 277.894 151.35 278.336C151.205 279.194 149.494 281.827 149.096 282.107ZM46.4498 386.731C50.1851 334.661 48.8786 338.021 60.3743 314.755C72.7269 329.131 75.3413 339.124 80.1976 358.232C78.6693 339.575 71.7191 325.005 60.8722 313.728C65.3301 311.853 73.1403 307.769 73.4691 307.739C78.259 307.268 84.7204 306.082 89.3549 304.904C137.834 291.067 120.31 294.593 142.458 286.799C142.848 286.647 146.302 285.099 146.999 284.55C145.708 285.897 119.312 305.989 121.76 305.989C124.809 309.873 126.672 311.34 133.12 318.014C131.313 318.66 120.632 322.58 119.407 323.505C123.824 339.797 125.773 349.803 140.859 382.356C140.625 381.602 120.757 325.402 120.387 324.244C126.901 321.722 134.019 319.02 135.323 318.361C134.19 316.852 131.933 314.488 123.163 305.719C137.64 291.551 147.904 289.376 151.576 280.001C151.733 279.6 152.305 279.623 152.438 280.027C154.969 287.769 152.032 297.279 157.347 314.031C165.208 340.498 168.763 349.8 174.388 385.35C125.23 385.224 77.5454 385.505 46.4498 386.731Z" fill="#5A0056"/>
<path d="M120.04 152.904C117.965 149.203 111.535 140.111 104.984 142.339C100.837 143.75 100.016 148.363 99.3497 152.436C98.4626 157.854 100.06 168.569 101.445 172.441C102.774 176.162 106.775 183.348 109.386 186.086C112.6 189.443 116.59 200.152 117.222 201.264C118.218 203.017 119.54 205.656 123.441 205.325C127.745 204.957 130.356 202.535 132.275 202.126C137.015 201.121 125.443 162.536 120.04 152.904Z" fill="#EBAA82" stroke="#BD6630" stroke-width="4.5"/>
<path d="M115.81 175.34C115.611 174.464 115.82 172.987 116.024 171.563C116.211 170.264 116.386 169.036 116.279 168.167C115.876 164.917 113.604 158.739 112.12 155.393C110.412 151.54 107.65 146.689 104.181 145.438C102.748 144.92 101.805 145.539 101.258 146.168C100.856 146.628 100.767 147.171 100.898 147.235C101.028 147.298 101.328 146.851 101.761 146.428C102.116 146.082 102.635 145.785 103.347 145.847C103.06 147.465 101.586 156.231 102.225 162.208C102.727 166.907 104.628 170.418 104.925 170.944C104.969 171.498 105.041 172.039 105.148 172.566C106.55 179.426 112.648 187.225 114.77 189.778C115.161 190.25 115.571 190.528 115.672 190.416C115.772 190.301 115.531 189.832 115.14 189.36C113.046 186.827 107.007 179.054 105.652 172.436C104.216 165.412 109.149 155.003 110.25 152.798C110.81 153.832 111.287 154.826 111.653 155.654C111.94 156.304 112.26 157.066 112.587 157.886C111.94 159.035 107.407 167.42 109.06 174.129C109.673 176.604 112.432 179.794 114.26 180.666C115.267 181.148 115.647 181.868 116.084 182.701C116.591 183.666 117.167 184.76 118.842 185.555C119.181 185.718 119.489 185.783 119.762 185.783C120.234 185.783 120.593 185.579 120.856 185.341C120.883 185.763 120.882 186.306 120.87 186.804C120.851 187.454 120.933 187.986 121.076 187.998C121.218 188.01 121.372 187.497 121.389 186.851C121.413 186.057 121.408 185.075 121.28 184.606C120.906 183.223 119.759 181.66 118.545 180.008C117.354 178.376 116.12 176.696 115.81 175.34ZM104.877 169.259C101.592 158.489 105.866 149.194 106.603 147.716C107.885 148.956 109.016 150.611 109.937 152.234C109.267 153.529 105.014 162.015 104.877 169.259ZM119.044 185.012C117.529 184.295 117.024 183.33 116.531 182.398C116.089 181.554 115.629 180.684 114.465 180.127C114.212 180.005 113.934 179.821 113.648 179.61C109.897 170.161 114.058 166.031 115.101 165.184C115.419 166.34 115.657 167.399 115.763 168.248C115.858 169.028 115.684 170.268 115.511 171.468C115.297 172.954 115.079 174.491 115.304 175.487C115.645 176.968 116.917 178.701 118.147 180.378C119.237 181.865 120.358 183.399 120.743 184.65C120.58 184.897 120.064 185.496 119.044 185.012Z" fill="#BD6630"/>
<path d="M279.554 152.904C281.632 149.203 288.061 140.111 294.61 142.339C298.759 143.75 299.578 148.363 300.246 152.436C301.133 157.854 299.536 168.569 298.151 172.441C296.822 176.162 292.821 183.348 290.207 186.086C286.995 189.443 283.003 200.152 282.372 201.264C281.38 203.017 280.057 205.656 276.155 205.325C271.85 204.957 269.24 202.535 267.319 202.126C262.579 201.121 274.153 162.536 279.554 152.904Z" fill="#EBAA82" stroke="#BD6630" stroke-width="4.5"/>
<path d="M281.05 180.005C279.835 181.658 278.69 183.22 278.315 184.603C278.185 185.072 278.182 186.054 278.206 186.848C278.224 187.494 278.377 188.006 278.518 187.994C278.66 187.982 278.742 187.451 278.725 186.801C278.713 186.302 278.713 185.76 278.74 185.338C279.003 185.576 279.362 185.78 279.834 185.78C280.108 185.78 280.415 185.715 280.753 185.552C282.426 184.758 283.003 183.663 283.51 182.698C283.946 181.865 284.33 181.147 285.334 180.662C287.164 179.791 289.922 176.601 290.535 174.126C292.188 167.417 287.656 159.032 287.007 157.882C287.335 157.062 287.656 156.3 287.941 155.651C288.309 154.823 288.785 153.829 289.344 152.795C290.445 154.998 295.379 165.409 293.944 172.433C292.592 179.051 286.552 186.824 284.456 189.357C284.067 189.829 283.826 190.298 283.925 190.413C284.025 190.524 284.435 190.248 284.827 189.775C286.949 187.222 293.048 179.422 294.451 172.563C294.556 172.035 294.627 171.495 294.671 170.941C294.968 170.414 296.872 166.904 297.373 162.205C298.01 156.229 296.536 147.462 296.251 145.844C296.964 145.78 297.479 146.079 297.836 146.424C298.269 146.848 298.569 147.295 298.699 147.231C298.829 147.168 298.74 146.625 298.34 146.165C297.792 145.536 296.85 144.917 295.416 145.435C291.948 146.687 289.184 151.537 287.478 155.39C285.994 158.736 283.722 164.914 283.317 168.164C283.209 169.033 283.385 170.261 283.574 171.559C283.777 172.985 283.986 174.462 283.786 175.337C283.477 176.696 282.243 178.375 281.05 180.005ZM289.66 152.233C290.581 150.611 291.713 148.954 292.995 147.714C293.731 149.193 298.004 158.487 294.722 169.257C294.582 162.014 290.331 153.528 289.66 152.233ZM278.852 184.65C279.235 183.399 280.357 181.865 281.448 180.377C282.679 178.701 283.949 176.968 284.292 175.486C284.515 174.491 284.298 172.953 284.085 171.467C283.912 170.268 283.738 169.028 283.835 168.248C283.937 167.399 284.177 166.338 284.495 165.184C285.538 166.03 289.699 170.161 285.951 179.609C285.663 179.821 285.386 180.006 285.132 180.127C283.969 180.684 283.512 181.554 283.067 182.397C282.575 183.33 282.068 184.295 280.553 185.012C279.532 185.496 279.016 184.897 278.852 184.65Z" fill="#BD6630"/>
<path d="M199.999 28.647C149.282 28.7284 108.094 70.6515 108.172 122.304C108.184 130.507 109.234 138.459 111.192 146.039H111.194C111.212 146.12 128.606 204.624 132.345 223.84C134.43 234.557 147.123 244.214 158.391 252.095C168.901 259.451 174.275 270.025 199.999 270.025C225.722 270.025 231.096 259.451 241.606 252.095C252.873 244.212 265.568 234.557 267.653 223.84C271.393 204.624 288.787 146.119 288.803 146.039H288.807C290.765 138.461 291.815 130.507 291.827 122.304C291.905 70.6515 250.715 28.7284 199.999 28.647Z" fill="#EBAA82"/>
<path d="M270.557 62.3933C281.838 78.1056 288.535 97.6814 288.506 118.908C288.492 127.112 287.482 135.064 285.594 142.643H285.591C285.575 142.724 268.81 201.227 265.207 220.445C263.193 231.163 250.919 240.819 240.061 248.7C229.926 256.055 224.793 266.632 199.997 266.632C175.204 266.632 170.063 256.055 159.932 248.7C149.075 240.818 136.798 231.163 134.791 220.445C131.187 201.229 114.422 142.724 114.405 142.643C112.517 135.065 111.506 127.112 111.492 118.908C111.461 97.6875 118.153 78.1192 129.428 62.4099C116.134 78.6487 108.137 99.5265 108.172 122.304C108.184 130.507 109.234 138.459 111.192 146.039H111.194C111.212 146.12 128.606 204.624 132.344 223.84C134.429 234.557 147.123 244.214 158.391 252.095C168.901 259.451 174.275 270.025 199.998 270.025C225.722 270.025 231.096 259.451 241.606 252.095C252.872 244.212 265.567 234.557 267.652 223.84C271.392 204.624 288.787 146.119 288.803 146.039H288.806C290.764 138.461 291.814 130.507 291.827 122.304C291.861 99.5204 283.858 78.6351 270.557 62.3933Z" fill="#E39D72"/>
<path d="M199.999 28.647C149.282 28.7284 108.094 70.6515 108.172 122.304C108.184 130.507 109.234 138.459 111.192 146.039H111.194C111.212 146.12 128.606 204.624 132.345 223.84C134.43 234.557 147.123 244.214 158.391 252.095C168.901 259.451 174.275 270.025 199.999 270.025C225.722 270.025 231.096 259.451 241.606 252.095C252.873 244.212 265.568 234.557 267.653 223.84C271.393 204.624 288.787 146.119 288.803 146.039H288.807C290.765 138.461 291.815 130.507 291.827 122.304C291.905 70.6515 250.715 28.7284 199.999 28.647Z" stroke="#BD6630" stroke-width="4.5"/>
<path d="M194.304 237.395L206.821 237.082C205.371 243.826 195.295 242.857 194.304 237.395Z" fill="url(#paint1_linear)"/>
<path d="M194.479 237.823C193.919 237.747 194.003 236.949 194.599 237.005C194.664 237.014 201.098 237.829 206.484 236.681C207.066 236.568 207.238 237.367 206.68 237.486C202.461 238.389 197.001 238.177 194.479 237.823ZM200.121 232.437C197.853 232.437 195.655 231.651 193.447 231.266C190.972 230.833 188.507 231.204 186.032 231.423C183.503 231.648 177.986 231.404 176.429 230.419C175.557 229.865 175.72 228.576 176.702 228.233C177.629 227.901 179.073 228.589 180.008 228.756C184.341 229.533 186.622 228.705 190.42 228.578C196.23 228.403 196.847 230.842 204.094 229.378C211.886 227.803 215.396 228.994 220.986 227.311C221.753 227.078 222.664 226.466 223.468 226.879C224.396 227.359 224.351 228.667 223.394 229.088C218.256 231.354 212.571 230.438 206.867 231.39C204.632 231.761 202.403 232.437 200.121 232.437Z" fill="#BD6630"/>
<path d="M168.109 161.954C161.607 163.093 156.559 163.025 151.985 161.646C147.267 160.223 141.141 154.367 139.017 148.83C144.621 148.412 156.138 147.93 161.48 148.598C168.552 149.482 175.773 152.228 180.044 156.497C180.019 156.94 179.964 157.376 179.912 157.812C176.464 160.146 171.583 161.344 168.109 161.954Z" fill="url(#paint2_radial)"/>
<path d="M159.022 153.958L152.328 152.431C152.182 153.08 152.098 153.751 152.098 154.444C152.098 155.136 152.184 155.809 152.33 156.456L161.149 154.444L159.022 153.958Z" fill="#EA2E2E"/>
<path d="M154.078 160.083C154.921 161.139 155.996 161.996 157.225 162.589L161.148 154.444L154.078 160.083Z" fill="#F09330"/>
<path d="M161.15 163.494C162.558 163.494 163.885 163.164 165.073 162.591L161.15 154.444V163.494Z" fill="#64398E"/>
<path d="M161.15 154.444L168.223 160.083C169.058 159.038 169.663 157.805 169.97 156.457L161.15 154.444Z" fill="#393B97"/>
<path d="M161.15 154.443L163.905 153.815L169.97 152.43C169.663 151.081 169.058 149.849 168.223 148.803L161.15 154.443Z" fill="#00AA4F"/>
<path d="M165.073 146.293C163.884 145.72 162.558 145.389 161.15 145.389V154.44L165.073 146.293Z" fill="black"/>
<path d="M157.224 146.296C155.996 146.889 154.92 147.746 154.077 148.803L161.148 154.442L157.224 146.296Z" fill="#9C2D91"/>
<path d="M161.15 154.444L169.97 156.456C170.116 155.809 170.202 155.136 170.202 154.444C170.202 153.751 170.116 153.078 169.97 152.431L163.905 153.816L161.15 154.444Z" fill="#EA2E2E"/>
<path d="M161.15 154.443L165.074 162.591C166.304 161.996 167.379 161.139 168.223 160.083L161.15 154.443Z" fill="#9B328D"/>
<path d="M161.149 154.444L157.227 162.591C158.414 163.164 159.742 163.494 161.149 163.494V154.444Z" fill="#FDE92B"/>
<path d="M161.149 154.444L152.332 156.457C152.638 157.805 153.244 159.039 154.079 160.085L161.149 154.444Z" fill="#00AA4F"/>
<path d="M161.15 154.441V145.389C159.74 145.389 158.414 145.72 157.226 146.293L161.15 154.441Z" fill="#65378F"/>
<path d="M161.15 154.442L168.223 148.802C167.379 147.746 166.304 146.887 165.074 146.294L161.15 154.442Z" fill="#EC9236"/>
<path d="M161.149 154.442L154.077 148.802C153.241 149.847 152.636 151.081 152.33 152.428L159.022 153.957L161.149 154.442Z" fill="#393B97"/>
<path opacity="0.3" d="M161.15 145.389C166.15 145.389 170.202 149.442 170.202 154.441C170.202 159.441 166.15 163.493 161.15 163.493C156.151 163.493 152.098 159.441 152.098 154.441C152.098 149.442 156.151 145.389 161.15 145.389Z" fill="black"/>
<path d="M164.668 154.443C164.668 156.388 163.093 157.963 161.149 157.963C159.204 157.963 157.629 156.386 157.629 154.443C157.629 152.5 159.204 150.923 161.149 150.923C163.093 150.923 164.668 152.498 164.668 154.443Z" fill="black"/>
<path opacity="0.6" d="M157.784 160.588C157.312 161.06 156.38 160.893 155.702 160.217C155.025 159.539 154.857 158.607 155.331 158.135C155.803 157.663 156.734 157.829 157.411 158.506C158.089 159.183 158.256 160.116 157.784 160.588Z" fill="white"/>
<path opacity="0.9" d="M167.997 152.759C167.291 153.467 165.581 152.901 164.176 151.498C162.772 150.095 162.207 148.383 162.913 147.677C163.621 146.969 165.333 147.533 166.735 148.938C168.139 150.341 168.705 152.053 167.997 152.759Z" fill="white"/>
<path d="M133.315 155.574C133.315 176.405 145.475 193.288 160.471 193.288C175.466 193.288 187.626 176.405 187.626 155.574C187.626 134.742 175.466 117.857 160.471 117.857C145.475 117.857 133.315 134.742 133.315 155.574ZM139.018 148.831C144.623 148.413 156.139 147.93 161.481 148.599C168.952 149.532 176.628 152.521 180.774 157.213C177.32 159.958 171.877 161.294 168.109 161.954C161.607 163.093 156.559 163.025 151.985 161.647C147.269 160.224 141.142 154.368 139.018 148.831Z" fill="#EBAA82"/>
<path d="M133.53 153.936C133.571 166.434 146.329 176.508 162.046 176.443C177.757 176.373 190.462 166.191 190.427 153.693C190.387 141.195 177.625 131.12 161.912 131.185C146.198 131.256 133.495 141.437 133.53 153.936ZM139.018 148.83C144.623 148.412 156.14 147.929 161.482 148.597C168.952 149.531 176.628 152.52 180.774 157.212C177.321 159.957 171.877 161.292 168.109 161.953C161.607 163.092 156.559 163.024 151.985 161.645C147.269 160.223 141.142 154.366 139.018 148.83Z" fill="url(#paint3_radial)"/>
<path d="M139.017 148.83C144.622 148.412 156.139 147.93 161.481 148.598C168.951 149.532 176.627 152.52 180.773 157.212C177.32 159.958 171.877 161.293 168.108 161.954C161.606 163.093 156.558 163.025 151.984 161.646C147.268 160.223 141.141 154.367 139.017 148.83Z" fill="url(#paint4_radial)"/>
<path d="M151.061 143.646C167.057 142.922 171.954 145.876 178.728 150.133C167.474 143.536 153.275 143.565 151.061 143.646ZM139.044 154.293C143.349 162.581 146.281 161.676 150.405 163.432C150.443 163.446 148.127 162.558 146.386 161.628C141.875 159.034 141.323 157.93 139.044 154.293Z" fill="#BD6630"/>
<path d="M137.341 147.978C141.651 157.018 144.523 162.952 158.962 163.171C169.949 163.336 176.755 162.32 182.472 158.081C177.351 150.245 170.775 147.866 162 146.981C153.101 146.082 137.341 147.978 137.341 147.978ZM140.414 149.277C145.644 148.888 156.39 148.437 161.376 149.06C168.347 149.93 175.51 152.72 179.38 157.098C176.156 159.661 171.076 160.905 167.561 161.522C161.495 162.586 156.782 162.523 152.516 161.236C148.112 159.91 142.396 154.444 140.414 149.277Z" fill="black"/>
<path d="M231.28 161.955C237.782 163.094 242.83 163.026 247.404 161.647C252.121 160.224 258.248 154.368 260.372 148.831C254.768 148.413 243.251 147.93 237.909 148.599C230.836 149.483 223.616 152.229 219.345 156.498C219.369 156.941 219.425 157.377 219.476 157.813C222.925 160.147 227.807 161.345 231.28 161.955Z" fill="url(#paint5_radial)"/>
<path d="M236.716 153.957L230.021 152.431C229.873 153.079 229.79 153.751 229.79 154.443C229.79 155.136 229.876 155.808 230.022 156.456L238.84 154.443L236.716 153.957Z" fill="#EA2E2E"/>
<path d="M231.77 160.083C232.614 161.139 233.689 161.996 234.917 162.589L238.84 154.444L231.77 160.083Z" fill="#F09330"/>
<path d="M238.843 163.494C240.251 163.494 241.578 163.163 242.765 162.59L238.842 154.444L238.843 163.494Z" fill="#64398E"/>
<path d="M238.842 154.444L245.914 160.083C246.748 159.037 247.352 157.805 247.659 156.456L238.842 154.444Z" fill="#393B97"/>
<path d="M238.842 154.442L241.595 153.815L247.661 152.43C247.353 151.081 246.75 149.848 245.915 148.803L238.842 154.442Z" fill="#00AA4F"/>
<path d="M242.765 146.293C241.577 145.719 240.249 145.389 238.842 145.389V154.439L242.765 146.293Z" fill="black"/>
<path d="M234.917 146.295C233.69 146.888 232.613 147.745 231.768 148.803L238.84 154.442L234.917 146.295Z" fill="#9C2D91"/>
<path d="M238.842 154.443L247.661 156.456C247.809 155.807 247.893 155.136 247.893 154.443C247.893 153.751 247.807 153.078 247.661 152.431L241.595 153.816L238.842 154.443Z" fill="#EA2E2E"/>
<path d="M238.842 154.442L242.765 162.59C243.993 161.996 245.072 161.139 245.915 160.083L238.842 154.442Z" fill="#9B328D"/>
<path d="M238.842 154.444L234.918 162.59C236.105 163.163 237.434 163.494 238.842 163.494H238.843L238.842 154.444Z" fill="#FDE92B"/>
<path d="M238.839 154.444L230.021 156.456C230.329 157.805 230.933 159.039 231.768 160.084L238.839 154.444Z" fill="#00AA4F"/>
<path d="M238.842 154.441V145.389C237.433 145.389 236.107 145.719 234.918 146.293L238.842 154.441Z" fill="#65378F"/>
<path d="M238.842 154.442L245.914 148.801C245.071 147.745 243.993 146.887 242.764 146.294L238.842 154.442Z" fill="#EC9236"/>
<path d="M238.839 154.442L231.767 148.801C230.933 149.847 230.329 151.081 230.021 152.428L236.715 153.956L238.839 154.442Z" fill="#393B97"/>
<path opacity="0.3" d="M238.842 145.389C243.841 145.389 247.894 149.441 247.894 154.441C247.894 159.44 243.841 163.492 238.842 163.492C233.844 163.492 229.791 159.44 229.791 154.441C229.791 149.441 233.844 145.389 238.842 145.389Z" fill="black"/>
<path d="M242.36 154.442C242.36 156.387 240.786 157.962 238.841 157.962C236.896 157.962 235.321 156.386 235.321 154.442C235.321 152.499 236.896 150.923 238.841 150.923C240.786 150.923 242.36 152.498 242.36 154.442Z" fill="black"/>
<path opacity="0.6" d="M235.476 160.587C235.004 161.06 234.073 160.892 233.396 160.216C232.718 159.539 232.549 158.607 233.025 158.134C233.497 157.662 234.428 157.828 235.105 158.505C235.781 159.183 235.947 160.115 235.476 160.587Z" fill="white"/>
<path opacity="0.9" d="M245.689 152.759C244.983 153.466 243.271 152.9 241.868 151.497C240.465 150.094 239.899 148.384 240.605 147.676C241.313 146.969 243.025 147.533 244.427 148.937C245.831 150.34 246.397 152.053 245.689 152.759Z" fill="white"/>
<path d="M238.919 117.858C223.924 117.858 211.764 134.744 211.764 155.575C211.764 176.406 223.924 193.289 238.919 193.289C253.915 193.289 266.074 176.406 266.074 155.575C266.074 134.743 253.915 117.858 238.919 117.858ZM247.404 161.648C242.831 163.026 237.782 163.094 231.28 161.955C227.513 161.295 222.07 159.959 218.615 157.214C222.76 152.522 230.436 149.533 237.907 148.6C243.249 147.931 254.766 148.414 260.37 148.832C258.246 154.368 252.121 160.225 247.404 161.648Z" fill="#EBAA82"/>
<path d="M237.479 131.186C221.765 131.121 209.004 141.196 208.963 153.694C208.929 166.192 221.633 176.374 237.345 176.444C253.062 176.509 265.82 166.435 265.861 153.937C265.895 141.438 253.193 131.257 237.479 131.186ZM247.404 161.646C242.832 163.025 237.782 163.093 231.28 161.954C227.513 161.293 222.07 159.958 218.615 157.213C222.761 152.521 230.437 149.532 237.908 148.598C243.25 147.93 254.766 148.413 260.371 148.831C258.247 154.367 252.122 160.224 247.404 161.646Z" fill="url(#paint6_radial)"/>
<path d="M260.373 148.831C254.769 148.413 243.252 147.93 237.91 148.599C230.439 149.533 222.763 152.521 218.618 157.213C222.071 159.959 227.514 161.294 231.283 161.955C237.785 163.094 242.833 163.026 247.407 161.647C252.123 160.224 258.248 154.368 260.373 148.831Z" fill="url(#paint7_radial)"/>
<path d="M220.659 150.137C227.435 145.879 232.33 142.924 248.328 143.649C246.114 143.568 231.915 143.539 220.659 150.137ZM253.004 161.632C251.263 162.563 248.948 163.45 248.985 163.437C253.11 161.68 256.043 162.586 260.347 154.297C258.066 157.933 257.515 159.037 253.004 161.632Z" fill="#BD6630"/>
<path d="M237.39 146.982C228.616 147.867 222.039 150.248 216.918 158.082C222.636 162.32 229.442 163.337 240.429 163.172C254.866 162.953 257.739 157.019 262.049 147.979C262.049 147.979 246.29 146.083 237.39 146.982ZM246.875 161.237C242.609 162.523 237.897 162.587 231.83 161.523C228.315 160.906 223.235 159.662 220.011 157.099C223.879 152.72 231.044 149.931 238.015 149.061C243.001 148.438 253.747 148.889 258.977 149.278C256.993 154.445 251.277 159.911 246.875 161.237Z" fill="black"/>
<path d="M261.849 199.286C261.902 233.414 234.254 261.13 200.09 261.177C165.931 261.233 138.194 233.61 138.141 199.475C138.088 165.35 165.737 137.525 199.9 137.47C234.059 137.417 261.8 165.153 261.849 199.286Z" fill="url(#paint8_radial)"/>
<path d="M256.57 108.805C256.57 140.05 231.241 165.378 199.998 165.378C168.753 165.378 143.423 140.05 143.423 108.805C143.423 77.5599 168.753 52.2317 199.998 52.2317C231.241 52.2317 256.57 77.5599 256.57 108.805Z" fill="url(#paint9_radial)"/>
<path d="M130.6 139.264C145.616 124.217 155.886 130.34 176.747 134.339C178.022 134.584 186.281 136.661 184.758 139.573C184.029 140.967 181.686 140.801 180.378 140.777C159.728 140.39 149.687 125.698 130.6 139.264Z" fill="#2A232B"/>
<path d="M269.393 139.264C254.378 124.217 244.107 130.34 223.246 134.339C221.97 134.584 213.711 136.661 215.234 139.573C215.962 140.967 218.305 140.801 219.613 140.777C240.263 140.39 250.306 125.698 269.393 139.264Z" fill="#2A232B"/>
<path d="M201.096 209.639C200.562 209.882 199.309 209.882 198.912 209.484C198.912 209.484 189.414 206.236 190.617 203.125C192.524 198.204 209.818 201.977 209.803 203.125C209.765 206.054 201.096 209.639 201.096 209.639Z" fill="#DC9164"/>
<path d="M188.251 198.733C188.251 198.733 196.47 170.637 197.315 164.624C198.919 174.384 195.048 196.113 194.639 200.547C194.142 205.931 199.851 209.128 199.851 209.128C200.293 209.688 199.759 210.036 199.073 209.816L189.069 205.955C186.699 203.941 186.699 202.024 188.251 198.733ZM204.787 203.715C206.168 204.027 206.456 204.584 206.349 205.159C206.245 205.739 205.652 206.533 204.406 205.807C203.037 205.014 200.454 204.65 200.454 204.65C200.454 204.65 203.407 203.398 204.787 203.715Z" fill="#BD6630"/>
<path d="M276.603 161.216C271.971 163.856 268.607 165.666 265.801 167.627C248.708 179.017 246.973 205.675 244.017 230.793C235.04 214.968 236.428 212.267 224.616 209.869C210.118 206.701 205.29 205.313 199.995 212.313C195.892 208.149 194.398 205.931 184.487 208.088C166.836 211.573 165.961 211.121 160.696 222.42C160.318 223.31 156.426 229.948 155.974 230.808C155.114 224.804 156.049 224.608 153.59 211.377C150.995 197.694 149.894 186.907 143.12 176.211C136.573 167.114 122.331 160.295 115.362 157.957C115.362 169.438 116.463 186.591 116.674 188.793C119.314 215.737 129.829 257.797 148.596 275.463C164.286 289.629 181.756 288.664 200.055 288.664C209.484 288.664 227.301 289.313 238.148 284.047C252.887 278.345 263.101 262.248 268.924 247.554C279.062 222.767 284.629 197.966 284.629 157.957C279.273 159.979 278.232 160.205 276.603 161.216ZM206.014 250.858C206.196 249.817 206.754 248.293 206.98 247.886C208.579 244.491 215.941 234.459 216.801 233.72C207.04 236.632 195.56 236.963 183.536 234.127C186.402 237.552 193.176 246.407 193.976 250.858C183.325 246.226 169.37 244.129 170.818 232.694C171.588 224.336 181.183 223.959 187.504 223.552C212.818 223.069 228.101 221.802 229.187 232.694C230.56 244.099 216.861 246.241 206.014 250.858Z" fill="#2A232B"/>
<path d="M284.629 157.957C284.629 197.966 279.062 222.767 268.924 247.554C263.101 262.248 252.887 278.345 238.148 284.047C227.301 289.313 209.484 288.664 200.055 288.664C181.756 288.664 164.286 289.629 148.596 275.463C129.829 257.797 119.314 215.737 116.674 188.793C116.463 186.576 115.362 169.438 115.362 157.957C116.855 158.455 118.696 159.179 120.702 160.069C130.689 205.132 133.224 267.603 183.4 285.315C181.892 282.297 177.366 276.263 177.366 276.263C177.366 276.263 186.418 282.297 190.943 285.315C190.943 283.806 189.465 277.953 189.465 277.953C189.465 277.953 196.676 283.127 201.202 284.636C201.202 283.127 199.693 278.481 199.693 278.481L207.583 283.685L219.607 273.246C219.607 273.246 215.836 281.166 214.327 284.183C219.758 282.72 228.629 276.188 228.629 276.188C228.629 276.188 227.15 280.789 227.15 282.297C271.217 257.511 271.292 205.056 277.855 160.537C279.077 159.963 280.676 159.451 284.629 157.957ZM183.536 234.127C183.958 234.625 184.456 235.244 185.015 235.953C194.685 242.078 205.637 241.821 214.9 236.073C215.851 234.821 216.575 233.916 216.816 233.72C207.04 236.632 195.545 236.948 183.536 234.127ZM201.111 280.532C200.508 279.401 199.663 277.938 199.422 276.67C199.422 276.655 198.969 274.8 198.969 274.8C198.939 274.664 198.396 270.953 198.502 270.953C198.426 268.916 198.14 266.231 197.989 264.707C196.827 274.966 198.456 277.425 201.111 280.532ZM206.573 242.078C206.558 242.078 206.588 242.229 206.527 242.485C206.06 244.657 202.484 249.047 202.152 251.733C202.032 247.267 206.346 243.586 206.573 242.078ZM237.907 236.647C240.049 241.565 238.329 245.004 236.021 249.847C237.907 243.013 238.917 241.293 237.907 236.647ZM229.609 221.938C231.797 225.241 232.596 225.845 235.267 235.892C232.777 230.386 232.521 228.847 229.609 221.938ZM231.872 217.789C234.859 220.248 236.911 222.481 239.038 230.612C236.338 224.578 234.542 221.032 231.872 217.789ZM205.849 275.871C206.678 266.91 209.333 261.886 215.277 255.127C210.902 261.976 208.111 268.162 205.849 275.871ZM215.277 272.476C218.491 267.483 222.006 259.563 228.478 257.767C226.155 258.884 225.038 260.151 222.926 262.7C222.926 262.7 221.78 264.043 220.09 266.532C218.883 268.282 216.786 270.983 215.277 272.476ZM221.689 278.888C225.34 273.185 225.099 271.481 228.855 267.95C225.355 272.793 225.581 274.95 221.689 278.888ZM219.049 260.407C220.95 254.343 223.922 248.851 229.986 245.698C225.385 249.244 221.825 255.278 219.049 260.407ZM203.586 264.526C202.137 260.136 203.043 256.274 203.963 251.718C203.706 257.601 203.027 260.664 203.586 264.526ZM248.09 257.013C243.79 262.836 239.777 265.582 234.512 267.573C239.476 264.647 241.618 262.716 248.09 257.013ZM254.502 239.287C252.178 250.315 243.639 257.239 233.758 262.67C244.167 254.162 248.045 249.274 248.045 249.274C250.202 246.83 252.872 243.073 254.502 239.287ZM245.45 248.716C245.374 239.241 247.004 233.569 252.239 225.332C248.98 233.403 246.672 241.851 245.45 248.716ZM263.93 209.869C263.855 213.882 263.961 221.379 253.37 235.892C253.4 235.817 260.642 219.961 260.551 219.961C262.588 215.209 263.101 213.338 263.93 209.869ZM252.239 217.789C252.012 209.446 254.139 207.862 257.519 198.554C255.814 207.394 253.642 208.918 252.239 217.789ZM270.342 179.696C268.577 190.226 266.51 192.851 259.405 208.36C262.407 195.491 265.56 192.142 270.342 179.696ZM163.969 249.847C161.54 244.884 160.017 241.746 162.084 236.647C161.691 238.427 161.359 239.241 162.099 243.3C162.099 243.315 163.969 249.847 163.969 249.847ZM164.724 235.892C166.987 226.403 168.902 224.231 170.381 221.938C166.413 231.08 168.284 228.244 164.724 235.892ZM160.952 230.612C162.687 223.461 164.739 220.701 168.118 217.789C165.01 221.455 163.381 225.392 160.952 230.612ZM184.713 255.127C191.305 262.278 193.236 267.966 194.142 275.871C191.999 268.056 189.254 262.61 184.713 255.127ZM171.512 257.767C173.67 258.341 175.616 259.351 177.833 262.052C177.833 262.052 179.81 264.194 183.28 270.153C184.049 271.496 184.713 272.476 184.713 272.476C182.767 270.485 177.019 262.716 177.049 262.716C174.333 259.472 173.474 258.733 171.512 257.767ZM169.627 267.95C173.73 271.828 173.338 273.683 176.793 278.888C173.021 275.086 172.976 272.612 169.627 267.95ZM170.004 245.698C172.855 247.162 174.59 248.7 175.601 250.119C175.601 250.119 176.295 251.024 176.943 251.944C179.252 255.535 179.719 256.621 180.941 260.407C179.84 258.341 179.252 257.194 176.174 252.472C175.525 251.582 174.862 250.707 174.862 250.707C173.036 248.172 171.377 246.754 170.004 245.698ZM196.027 251.733C197.038 256.968 196.646 258.401 195.65 261.539C196.239 257.843 196.193 258.295 196.027 251.733ZM195.273 242.681C196.782 243.737 198.517 245.216 199.618 248.565C199.618 248.565 201.64 253.422 200.176 260.453C200.282 258.22 199.95 247.69 195.273 242.681ZM165.478 267.573C159.64 265.597 155.657 261.916 151.9 257.013C156.864 261.494 160.062 264.315 165.478 267.573ZM166.232 262.67C156.411 257.224 147.978 250.526 145.489 239.287C146.907 242.666 148.657 245.668 151.931 249.289C151.931 249.289 156.004 254.026 166.232 262.67ZM147.752 225.332C152.293 232.468 154.631 238.276 154.54 248.716C153.198 241.188 150.769 232.8 147.752 225.332ZM146.62 235.892C140.797 228.093 136.331 219.735 136.06 209.869C137.946 218.211 141.189 223.522 146.62 235.892ZM142.471 198.554C146.122 208.375 147.978 209.959 147.752 217.789C146.605 209.205 144.176 208.073 142.471 198.554ZM140.586 208.36C134.868 195.914 131.594 191.328 129.648 179.696C134.943 193.5 137.734 196.17 140.586 208.36Z" fill="#1B141C"/>
<path d="M276.603 161.216C271.971 163.856 268.607 165.666 265.801 167.627C248.708 179.017 246.973 205.675 244.017 230.793C235.04 214.968 236.428 212.267 224.616 209.869C210.118 206.701 205.29 205.313 199.995 212.313C195.892 208.149 194.398 205.931 184.487 208.088C166.836 211.573 165.961 211.121 160.696 222.42C160.318 223.31 156.426 229.948 155.974 230.808C155.114 224.804 156.049 224.608 153.59 211.377C150.995 197.694 149.894 186.907 143.12 176.211C136.573 167.114 122.331 160.295 115.362 157.957C115.362 169.438 116.463 186.591 116.674 188.793C119.314 215.737 129.829 257.797 148.596 275.463C164.286 289.629 181.756 288.664 200.055 288.664C209.484 288.664 227.301 289.313 238.148 284.047C252.887 278.345 263.101 262.248 268.924 247.554C279.062 222.767 284.629 197.966 284.629 157.957C279.273 159.979 278.232 160.205 276.603 161.216ZM255.422 267.257C248.241 278.194 232.053 285.375 225.31 285.767C222.971 286.024 211.898 287.985 186.297 286.899C181.892 286.869 169.249 285.571 162.687 282.131C137.146 271.466 125.424 228.47 120.189 201.134C118.635 193.817 116.674 174.688 115.784 158.545C125.801 162.92 137.946 170.554 143.497 180.405C148.31 189.623 149.441 200.485 152.066 211.8C155.4 226.463 153.741 221.938 155.612 231.487C155.672 231.729 155.717 231.97 155.777 232.196C169.702 210.532 162.762 213.821 184.743 209.295C191.547 207.636 195.303 207.304 199.995 212.916C205.833 206.007 209.469 207.983 224.344 211.106C236.127 213.716 233.29 215.496 242.945 230.19C243.323 230.763 244.092 231.985 244.213 232.211C245.073 228.772 245.495 223.205 246.476 217.925C246.762 216.416 251.65 193.198 253.4 187.963C258.002 173.435 265.243 169.573 277.04 162C278.594 160.899 279.997 160.461 284.221 158.53C282.049 193.787 276.256 238.291 255.422 267.257ZM215.096 222.451C207.719 222.33 206.316 223.054 187.534 222.405C181.831 222.496 176.144 222.586 172.463 226.177C168.058 230.205 165.765 242.093 181.168 247.343C186.131 248.912 193.448 251.175 194.655 251.688C194.655 246.8 186.025 236.194 184.652 234.64C198.517 238.11 210.963 236.149 215.715 234.233C213.603 236.526 205.336 246.905 205.336 251.688C218.536 247.282 226.079 246.181 229.458 239.422C232.657 233.614 230.982 222.194 215.096 222.451ZM206.014 250.858C206.196 249.817 206.754 248.293 206.98 247.886C208.579 244.491 215.941 234.459 216.801 233.72C207.04 236.632 195.56 236.963 183.536 234.127C186.402 237.552 193.176 246.407 193.976 250.858C183.325 246.226 169.37 244.129 170.818 232.694C171.588 224.336 181.183 223.959 187.504 223.552C212.818 223.069 228.101 221.802 229.187 232.694C230.56 244.099 216.861 246.241 206.014 250.858Z" fill="black"/>
<path d="M279.927 176.095C273.043 157.335 281.009 128.565 267.549 107.28C261.418 97.0782 256.088 90.0677 257.064 78.1994L256.509 78.0123C255.209 80.052 253.501 82.2666 252.368 83.6847C253.012 82.0388 254.062 79.5179 255.012 77.6155L254.512 77.2867C250.612 81.9227 247.263 84.3002 242.655 85.5841C247.634 82.0841 253.139 75.9938 255.548 72.6175L255.139 72.189C238.063 83.1763 218.685 83.3257 201.589 83.4599C186.161 83.5746 176.578 83.2261 165.453 76.7602C157.426 79.4214 151.105 79.0819 144.158 74.2936C122.412 116.455 132.074 95.3494 119.074 173.506C111.525 163.444 109.331 157.044 107.545 147.457C107.073 144.399 106.611 139.682 106.898 136.572L106.803 136.474C100.086 121.735 96.9167 113.343 98.5128 84.1071C99.6971 71.9778 102.334 62.8718 109.939 53.3343C108.936 48.1522 108.839 42.9279 109.521 37.9313C105.538 30.6492 102.797 23.1544 101.729 20.4766C107.293 24.7354 107.753 24.9813 112.395 26.4462C113.457 23.524 115.005 20.6214 115.996 19.1068C116.444 22.4831 116.8 24.7641 117.811 28.0453C118.155 28.1283 119.792 28.5718 120.315 28.7121C120.015 26.7147 119.741 25.7884 119.783 23.9977C120.644 25.9619 121.371 26.4175 123.871 29.468C126.638 30.0488 125.974 29.9628 126.804 29.9628C122.777 23.6522 120.06 18.0673 119.371 9.5738C124.882 12.7132 132.593 14.507 140.644 14.507C159.561 14.507 178.916 0.307861 205.77 0.307861C229.04 0.307861 249.174 13.2186 258.093 27.9201C258.084 24.1274 257.923 20.9895 259.291 17.0912C259.291 17.0912 259.449 22.6807 259.449 27.0361L260.047 27.0919C260.982 22.1119 262.955 17.8667 266.214 13.8568C263.32 21.6382 264.422 17.4835 261.184 26.9848L261.709 27.2669C263.868 24.4925 265.636 22.5313 270.79 19.932C267.066 23.6628 264.22 25.8005 262.459 28.4391L262.913 28.8298C265.11 26.8384 267.395 26.0841 269.72 27.905C265.977 26.5443 263.767 28.9294 261.199 31.9406C271.185 33.5865 276.602 39.3479 283.623 47.0494C299.784 65.6839 304.04 83.8763 295.274 109.666C298.948 117.606 298.382 135.501 290.183 149.925C290.18 158.389 284.39 168.831 279.927 176.095Z" fill="#2A232B"/>
<path d="M143.12 73.1573C143.662 73.6612 144.204 74.165 144.741 74.6719C144.546 74.5437 144.352 74.4245 144.155 74.2903C122.41 116.452 132.071 95.3461 119.072 173.503C111.522 163.441 109.329 157.041 107.543 147.454C107.071 144.396 106.609 139.678 106.896 136.569L106.8 136.471C100.084 121.732 96.9145 113.339 98.5106 84.1038C99.6949 71.9745 102.332 62.8685 109.937 53.331C108.95 48.2349 108.851 43.0996 109.495 38.1784C110.396 39.497 111.34 40.7808 112.305 42.0481C112.956 46.0067 113.506 49.8672 112.497 52.9855C98.1063 97.4566 106.463 117.856 115.514 149.537C111.797 125.503 104.74 94.9478 123.991 77.1235C115.768 96.8803 118.038 105.839 120.04 119.365C121.424 101.385 127.877 84.6605 143.12 73.1573ZM283.623 47.0416C283.055 46.42 282.503 45.8166 281.954 45.2207C281.378 45.6054 280.787 45.9584 280.206 46.3325C302.769 92.5883 281.102 88.1469 286.266 108.803C292.299 123.889 284.48 132.942 284.48 148.029C284.48 125.399 283.452 109.651 270.962 91.9456C266.744 85.967 265.56 65.661 262.718 55.6271C227.715 77.1235 175.862 81.6206 121.422 38.1754C147.069 47.2271 199.341 40.2121 217.284 28.647C196.83 32.3597 154.13 32.5815 134.929 24.6778C180.942 21.1024 180.385 6.333 219.609 3.55715C200.751 -3.48358 159.56 14.5007 140.645 14.5007C132.595 14.5007 124.884 12.7084 119.372 9.56748C120.061 18.061 122.778 23.6474 126.805 29.9565C125.974 29.9565 126.639 30.0425 123.872 29.4616C121.371 26.4112 120.644 25.9541 119.784 23.9914C119.74 25.7821 120.016 26.7084 120.316 28.7058C119.793 28.5655 118.154 28.122 117.812 28.039C116.801 24.7578 116.445 22.4767 115.997 19.1004C115.007 20.6151 113.458 23.5177 112.396 26.4399C107.752 24.975 107.294 24.7291 101.73 20.4703C102.798 23.1481 105.539 30.6444 109.522 37.925C109.511 38.008 109.508 38.0925 109.498 38.1754C119.01 52.1075 132.382 63.0239 144.744 74.6719C151.463 79.0831 157.655 79.3426 165.456 76.7569C176.58 83.2228 186.164 83.5713 201.592 83.4566C218.687 83.3239 238.065 83.173 255.141 72.1857L255.55 72.6142C253.141 75.9905 247.636 82.0808 242.658 85.5808C247.266 84.2954 250.614 81.9178 254.514 77.2834L255.015 77.6122C254.064 79.5161 253.014 82.0355 252.37 83.6814C253.503 82.2633 255.211 80.0487 256.511 78.009L257.066 78.1961C256.092 90.0659 261.42 97.0749 267.551 107.276C281.011 128.561 273.047 157.334 279.93 176.092C284.392 168.828 290.182 158.387 290.182 149.914C298.382 135.49 298.947 117.595 295.274 109.655C304.039 83.8685 299.783 65.6761 283.623 47.0416ZM284.729 85.7362C284.231 71.3681 274.722 53.1319 274.722 53.1319C270.277 45.281 266.305 41.5351 259.642 40.0144C278.388 40.9483 285.75 68.9482 284.94 83.5758C284.863 84.9336 284.729 85.7362 284.729 85.7362ZM242.098 25.0655C247.051 29.083 248.234 30.2295 253.105 36.9972C227.982 -8.09392 178.68 26.0295 163.09 24.9282C178.938 28.2035 214.771 5.02654 242.098 25.0655ZM254.864 44.6655C224.75 69.6301 178.769 59.0547 141.161 47.2679C178.615 64.4224 226.3 73.7049 254.864 44.6655ZM136.437 71.8207C126.572 76.9877 121.93 89.9995 121.502 98.5986C123.344 91.1777 128.872 77.5625 136.437 71.8207ZM123.991 64.6547C109.872 73.2523 107.134 92.973 108.528 109.536C110.012 94.2357 112.77 74.2722 123.991 64.6547ZM225.74 45.9554C224.222 46.2797 214.789 47.5726 209.64 47.7582C205.626 47.992 189.972 48.253 175.861 47.6858C190.426 50.8071 199.175 51.3879 209.798 50.7709C222.027 50.3289 232.971 47.9075 242.039 40.5183C235.65 44.0349 232.927 44.5358 225.74 45.9554ZM276.347 86.0017C276.347 86.0017 275.96 85.3364 275.46 84.3392C274.085 82.0355 272.525 75.7687 266.501 56.0737C270.976 92.5747 278.294 85.9172 281.574 104.776C281.576 97.9937 281.102 94.5163 276.347 86.0017Z" fill="#1B141C"/>
<path d="M287.275 130.123C287.824 125.226 287.602 127.471 287.662 124.677C288.124 115.257 282.494 107.36 285.921 96.0329C288.718 87.8064 290.334 86.5165 289.109 72.1952C288.93 70.1284 288.394 64.993 287.447 63.1465C288.738 65.3928 289.592 69.5506 290.049 72.0986C292.594 86.4954 290.453 88.6814 287.754 96.6394C284.149 108.663 291.069 113.967 287.275 130.123ZM262.717 55.6275C264.403 101.444 273.694 90.8025 281.903 118.615C276.33 85.809 271.175 113.008 262.717 55.6275ZM122.105 78.987C108.241 96.4312 109.641 109.007 113.053 134.806C112.746 108.692 109.562 98.7801 122.105 78.987ZM112.153 54.0631C104.196 78.6823 102.454 89.7932 106.274 116.346C105.566 89.7253 105.735 83.8493 112.153 54.0631ZM142.597 73.565C128.069 84.0032 120.485 103.098 120.04 119.365C122.276 103.819 130.618 84.2098 142.597 73.565ZM243.528 64.4424C225.347 71.1361 195.754 72.9284 174.149 66.4368C157.312 61.5262 131.021 45.0249 116.879 34.6487C129.699 44.8545 152.288 60.004 168.061 65.9917C184.449 72.1152 210.131 74.3902 230.036 69.3786C243.988 65.8726 251.219 62.5596 262.717 55.629C257.599 58.4351 250.059 62.4027 243.528 64.4424ZM204.24 9.84847C222.596 6.40128 244.232 18.2334 255.619 32.2213C243.706 15.1467 224.184 6.65171 212.53 6.44955C193.402 6.11766 173.615 22.5058 134.928 23.9224C171.306 25.5245 188.792 12.3498 204.24 9.84847ZM218.657 29.2026C192.574 38.47 172.433 40.6877 145.025 42.1465C173.332 43.889 193.568 41.1433 218.657 29.2026ZM246.064 34.4872C229.979 42.0711 222.937 43.3142 189.736 45.3357C210.551 46.176 229.995 45.0943 246.064 34.4872ZM192.828 57.5465C208.885 59.4127 237.014 57.3881 251.092 42.7801C234.09 57.103 202.637 56.59 178.105 55.6155C187.495 57.0803 185.8 56.8359 192.828 57.5465ZM261.652 43.5344C273.162 47.7721 275.968 67.9635 280.51 84.2672C278.478 69.8161 275.007 46.6693 261.652 43.5344Z" fill="#3A353A"/>
<path d="M283.843 46.8393C277.283 39.6447 271.394 33.307 261.772 31.7229C264.931 28.0072 267.151 26.6253 271.201 28.932C268.802 26.1093 266.046 25.5738 262.707 28.6001C264.624 25.7262 267.939 23.3803 272.211 18.8997C265.828 21.8943 263.909 23.9384 261.47 27.0764C264.917 16.9641 263.431 22.3574 267.082 12.3673C263.267 16.6458 260.827 21.2984 259.752 27.0311C259.752 18.1257 259.473 19.2768 259.646 15.3846C257.554 20.0447 257.792 24.1497 257.792 26.835C254.423 21.2803 249.473 16.5764 244.137 12.7294C206.34 -14.8617 168.648 10.5329 148.219 13.6044C139.939 15.0029 127.53 14.1143 119.028 9.0182C119.628 17.7139 122.321 23.4889 126.254 29.6561C126.252 29.6561 124.036 29.1884 124.036 29.1884C120.99 25.5165 120.696 25.6341 119.571 22.6561C119.283 25.3158 119.723 26.7897 119.948 28.2984C119.197 28.1022 118.504 27.894 118.047 27.7854C116.926 24.1436 116.602 21.3738 116.191 18.2962C115.265 19.4805 113.292 23.0936 112.209 26.0656C107.684 24.6354 107.36 24.4076 101 19.5333C101.754 21.0419 104.483 29.2805 109.207 37.9837C108.497 43.3151 108.712 48.6345 109.614 53.2509C102.033 62.7733 99.4005 71.8763 98.2087 84.0871C96.6382 112.84 99.5166 121.216 106.551 136.617C106.566 136.632 106.566 136.662 106.582 136.678C106.314 139.651 106.761 144.375 107.245 147.509C109.024 157.062 111.205 163.641 119.178 174.137C119.209 174.167 119.224 174.212 119.254 174.242C124.376 143.515 123.848 142.762 124.941 135.184C130.33 96.3944 130.096 102.188 144.267 74.7337C150.019 78.6983 156.389 80.0923 165.418 77.0871C171.968 80.8949 178.657 83.8005 197.189 83.8005C215.551 83.5711 236.679 84.422 255.301 72.4406C252.48 76.3962 246.071 83.2332 241.03 86.2897C246.278 85.1793 250.044 83.0658 254.743 77.4793C253.299 80.3683 251.601 84.7418 251.469 85.2638C251.696 84.9923 254.713 81.3867 256.765 78.1733C255.779 90.1593 261.131 97.1774 267.295 107.441C280.806 128.807 272.591 158.011 279.862 176.777C284.523 169.24 290.482 158.543 290.482 149.999C298.342 136.291 299.468 118.15 295.596 109.643C303.467 86.0619 301.877 67.6326 283.843 46.8393ZM119.72 23.6216C120.456 25.7171 120.618 25.6718 123.477 29.0677C122.058 28.7736 121.116 28.5669 120.263 28.3738C119.933 26.7807 119.72 25.266 119.72 23.6216ZM115.933 19.6087C116.075 21.9199 116.626 24.9522 117.427 27.6195C113.105 26.5076 114.711 26.8591 113.203 26.4126C114.444 22.6803 114.912 21.7359 115.933 19.6087ZM118.528 170.803C112.168 159.329 110.498 155.428 108.737 143.813C108.565 142.477 108.025 138.615 107.998 136.768C98.8408 115.828 95.3981 76.0673 109.824 54.1863C109.824 54.1712 109.824 54.1712 109.824 54.1712C109.824 54.1712 110.425 53.2298 111.513 51.8781C111.11 49.8505 110.712 45.572 110.849 40.8953C111.966 42.8867 113.233 44.697 114.364 46.432C114.364 46.4274 115.255 47.6102 115.255 47.6389C122.12 56.3738 128.461 63.6362 143.798 74.4168C125.385 104.248 126.527 94.1722 118.528 170.803ZM296.002 100.065C295.465 103.622 294.308 108.487 293.68 110.61C297.874 121.273 293.293 141.412 289.063 150.408C287.213 161.108 285.223 163.262 279.996 173.927C276.259 157.332 283.893 127.885 269.798 105.918C260.657 90.7657 256.737 88.7804 258.89 70.0584C258.89 70.0584 258.982 69.0401 259.011 68.7761C239.96 80.4242 218.918 81.7412 191.168 81.1468C183.147 81.1468 172.311 80.139 165.552 75.9572C151.852 79.8539 146.77 73.7893 135.364 64.8839C123.05 54.4186 114.683 45.2809 104.362 23.7438C110.16 28.4477 121.767 30.8177 129.089 32.0412C124.151 25.4591 121.245 19.4458 119.931 10.9206C125.181 14.4206 137.763 17.8647 148.852 16.6382C169.269 14.7208 197.858 -6.24299 232.987 9.65333C249.286 16.8449 257.557 26.9662 259.494 32.2826C259.509 32.2826 259.524 32.2977 259.554 32.2977C259.645 32.3279 259.735 32.343 259.839 32.358C259.865 32.3852 260.34 32.4938 260.382 32.4938C270.906 36.0014 271.611 36.6561 281.805 48.5455C287.534 55.5742 301.326 69.6059 296.002 100.065Z" fill="black"/>
<path d="M251.078 189.563C246.175 189.563 241.09 189.02 236.761 188.055C229.685 186.456 220.86 180.135 215.172 170.706C208.927 160.357 207.554 152.995 209.53 145.663C212.065 136.204 228.252 132.839 242.539 132.839C257.233 132.839 274.25 136.339 278.368 143.023C285.308 154.277 280.511 174.538 276.468 180.738C271.263 188.704 256.976 189.563 251.078 189.563Z" fill="url(#paint10_linear)"/>
<path d="M148.914 189.563C153.817 189.563 158.901 189.02 163.231 188.055C170.306 186.456 179.132 180.135 184.819 170.706C191.065 160.357 192.438 152.995 190.461 145.663C187.927 136.204 171.739 132.839 157.453 132.839C142.759 132.839 125.742 136.339 121.623 143.023C114.683 154.277 119.481 174.538 123.524 180.738C128.729 188.704 143.015 189.563 148.914 189.563Z" fill="url(#paint11_linear)"/>
<path d="M245.662 129.52C226.488 129.52 215.46 133.986 199.996 133.986C184.533 133.986 173.52 129.52 154.33 129.52C131.535 130.018 116.087 134.348 112.496 137.094V147.684C116.464 149.766 113.884 155.68 117.565 172.606C120.899 187.934 131.807 190.001 139.621 191.328C150.679 193.184 163.639 192.128 172.615 186.818C184.156 179.999 190.975 167.553 193.63 156.298C195.108 150.022 199.287 150.43 200.011 150.43C200.735 150.43 204.914 150.022 206.393 156.298C209.033 167.553 215.852 179.999 227.408 186.818C236.384 192.113 249.328 193.184 260.401 191.328C268.201 190.016 279.123 187.949 282.457 172.606C286.138 155.68 283.559 149.766 287.526 147.684V137.094C283.906 134.348 268.457 130.033 245.662 129.52ZM163.065 187.315C150.348 190.182 130.132 189.473 124.158 180.315C120.251 174.326 115.559 154.292 122.272 143.4C129.408 131.828 185.001 128.223 189.738 145.844C193.464 159.708 179.404 183.619 163.065 187.315ZM275.835 180.315C269.86 189.473 249.66 190.182 236.927 187.315C220.589 183.634 206.529 159.708 210.255 145.844C214.992 128.223 270.6 131.828 277.72 143.4C284.434 154.277 279.742 174.326 275.835 180.315Z" fill="#26120B"/>
<path d="M284.448 138.406C285.429 139.643 285.278 140.986 285.127 143.762C285.218 140.579 284.463 139.266 283.573 138.497C282.306 137.018 275.427 134.212 271.655 133.292C276.603 134.182 282.774 136.385 284.448 138.406ZM280.752 167.492C279.047 175.156 278.429 179.38 274.22 183.212C270.207 186.878 263.478 188.311 258.259 188.734C266.405 188.417 271.489 186.245 274.657 183.408C278.519 179.984 279.621 175.518 280.752 167.492ZM115.543 138.406C114.563 139.643 114.713 140.986 114.864 143.762C114.774 140.579 115.528 139.266 116.418 138.497C117.685 137.018 124.565 134.212 128.336 133.292C123.388 134.182 117.218 136.385 115.543 138.406ZM125.319 183.423C128.487 186.245 133.586 188.432 141.718 188.749C136.483 188.326 129.769 186.893 125.757 183.227C121.548 179.395 120.944 175.171 119.224 167.507C120.371 175.518 121.472 179.984 125.319 183.423Z" fill="#351D15"/>
<path d="M236.67 130.652C224.782 131.543 207.66 135.043 199.996 135.043C192.332 135.043 175.209 131.543 163.321 130.652C149.985 129.657 136.438 131.271 129.106 133.036C129.619 133.096 130.071 133.127 130.645 133.202C141.476 131.045 150 130.803 159.987 131.135C170.578 131.482 192.03 135.616 199.981 135.465C207.931 135.616 229.399 131.482 239.974 131.135C249.961 130.803 258.5 131.045 269.317 133.202C269.89 133.127 270.343 133.096 270.856 133.036C263.554 131.286 250.006 129.672 236.67 130.652Z" fill="#452B22"/>
</g>
<defs>
<linearGradient id="paint0_linear" x1="199.995" y1="285.315" x2="199.995" y2="224.97" gradientUnits="userSpaceOnUse">
<stop stop-color="#DC9164" stop-opacity="0.8"/>
<stop offset="0.7" stop-color="#BD6630"/>
</linearGradient>
<linearGradient id="paint1_linear" x1="199.996" y1="241.563" x2="199.996" y2="237.037" gradientUnits="userSpaceOnUse">
<stop offset="0.1" stop-color="#E39D72"/>
<stop offset="1" stop-color="#DC9164"/>
</linearGradient>
<radialGradient id="paint2_radial" cx="0" cy="0" r="1" gradientUnits="userSpaceOnUse" gradientTransform="translate(158.964 155.323) rotate(180) scale(21.1207)">
<stop stop-color="white"/>
<stop offset="0.544" stop-color="#FDFEFE"/>
<stop offset="0.74" stop-color="#F6F8F9"/>
<stop offset="0.879" stop-color="#EAEFF2"/>
<stop offset="0.992" stop-color="#D9E3E8"/>
<stop offset="1" stop-color="#D8E2E7"/>
</radialGradient>
<radialGradient id="paint3_radial" cx="0" cy="0" r="1" gradientUnits="userSpaceOnUse" gradientTransform="translate(161.743 153.979) rotate(1.19182) scale(28.2192 17.728)">
<stop stop-color="#DC9164"/>
<stop offset="0.7" stop-color="#DC9164" stop-opacity="0.3"/>
<stop offset="1" stop-color="#EBAA82" stop-opacity="0"/>
</radialGradient>
<radialGradient id="paint4_radial" cx="0" cy="0" r="1" gradientUnits="userSpaceOnUse" gradientTransform="translate(154.353 196.354) rotate(-3.00026) scale(46.0082)">
<stop offset="0.95" stop-opacity="0"/>
<stop offset="1" stop-opacity="0.2"/>
</radialGradient>
<radialGradient id="paint5_radial" cx="0" cy="0" r="1" gradientUnits="userSpaceOnUse" gradientTransform="translate(240.428 155.324) scale(21.1207)">
<stop stop-color="white"/>
<stop offset="0.544" stop-color="#FDFEFE"/>
<stop offset="0.74" stop-color="#F6F8F9"/>
<stop offset="0.879" stop-color="#EAEFF2"/>
<stop offset="0.992" stop-color="#D9E3E8"/>
<stop offset="1" stop-color="#D8E2E7"/>
</radialGradient>
<radialGradient id="paint6_radial" cx="0" cy="0" r="1" gradientUnits="userSpaceOnUse" gradientTransform="translate(237.646 153.98) rotate(178.808) scale(28.2192 17.728)">
<stop stop-color="#DC9164"/>
<stop offset="0.7" stop-color="#DC9164" stop-opacity="0.3"/>
<stop offset="1" stop-color="#EBAA82" stop-opacity="0"/>
</radialGradient>
<radialGradient id="paint7_radial" cx="0" cy="0" r="1" gradientUnits="userSpaceOnUse" gradientTransform="translate(245.037 196.357) rotate(-177) scale(46.0097)">
<stop offset="0.95" stop-opacity="0"/>
<stop offset="1" stop-opacity="0.2"/>
</radialGradient>
<radialGradient id="paint8_radial" cx="0" cy="0" r="1" gradientUnits="userSpaceOnUse" gradientTransform="translate(199.996 199.325) scale(61.8534)">
<stop stop-color="#FAC5A3" stop-opacity="0.5"/>
<stop offset="0.9" stop-color="#EBAA82" stop-opacity="0"/>
</radialGradient>
<radialGradient id="paint9_radial" cx="0" cy="0" r="1" gradientUnits="userSpaceOnUse" gradientTransform="translate(199.996 108.806) scale(55.8189)">
<stop stop-color="#FAC5A3" stop-opacity="0.5"/>
<stop offset="0.9" stop-color="#EBAA82" stop-opacity="0"/>
</radialGradient>
<linearGradient id="paint10_linear" x1="245.254" y1="131.436" x2="245.254" y2="191.781" gradientUnits="userSpaceOnUse">
<stop/>
<stop offset="1" stop-opacity="0.8"/>
</linearGradient>
<linearGradient id="paint11_linear" x1="154.737" y1="131.436" x2="154.737" y2="191.781" gradientUnits="userSpaceOnUse">
<stop/>
<stop offset="1" stop-opacity="0.8"/>
</linearGradient>
</defs>
</svg>
